<svg xmlns="http://www.w3.org/2000/svg" width="25.084" height="16.35" viewBox="0 0 25.084 16.35"><defs><style>.a{fill:#8395a7;}</style></defs><path class="a" d="M955.222,416.848a16.6,16.6,0,0,0-3.284-3.1,14.912,14.912,0,0,0-18.165,0,16.6,16.6,0,0,0-3.284,3.1.883.883,0,0,0,0,1.061,15.874,15.874,0,0,0,2.556,2.541l-1.182,2.363a.884.884,0,0,0,1.56.83l.019-.04,1.05-2.1a16.5,16.5,0,0,0,2.789,1.471l-1.046,2.091a.884.884,0,0,0,1.581.79h0l1.149-2.3a14.51,14.51,0,0,0,3,.512v2.059a.884.884,0,1,0,1.767,0v-2.059a14.511,14.511,0,0,0,3.005-.512l1.149,2.3a.884.884,0,0,0,1.581-.79h0l-1.046-2.091a16.492,16.492,0,0,0,2.788-1.471l1.05,2.1a.884.884,0,0,0,1.58-.79l-1.182-2.364a15.875,15.875,0,0,0,2.556-2.541A.885.885,0,0,0,955.222,416.848Zm-4.365,2.766a13.144,13.144,0,0,1-15.992,0,16.285,16.285,0,0,1-2.507-2.235,16.226,16.226,0,0,1,2.507-2.234,13.14,13.14,0,0,1,15.992,0,16.317,16.317,0,0,1,2.507,2.234,16.249,16.249,0,0,1-2.512,2.233Z" transform="translate(-930.312 -410.662)"/></svg>