<svg xmlns="http://www.w3.org/2000/svg" xmlns:xlink="http://www.w3.org/1999/xlink" width="29" height="29" viewBox="0 0 29 29"><defs><style>.a{fill:#fff;}.b{clip-path:url(#a);}.c{fill:#fbbb00;}.d{fill:#518ef8;}.e{fill:#28b446;}.f{fill:#f14336;}</style><clipPath id="a"><rect class="a" width="29" height="29" transform="translate(71 13)"/></clipPath></defs><g class="b" transform="translate(-71 -13)"><rect class="a" width="29" height="29" transform="translate(71 13)"/><path class="c" d="M77.427,30.525l-1.009,3.768-3.69.078a14.526,14.526,0,0,1-.107-13.54h0l3.285.6L77.346,24.7a8.654,8.654,0,0,0,.081,5.826Z"/><path class="d" d="M99.747,24.791a14.495,14.495,0,0,1-5.169,14.016h0L90.44,38.6l-.585-3.655a8.642,8.642,0,0,0,3.718-4.413H85.819V24.791H99.747Z"/><path class="e" d="M94.577,38.807h0a14.5,14.5,0,0,1-21.85-4.436l4.7-3.847A8.624,8.624,0,0,0,89.854,34.94Z"/><path class="f" d="M94.755,16.338l-4.7,3.846A8.623,8.623,0,0,0,77.345,24.7l-4.724-3.867h0a14.5,14.5,0,0,1,22.134-4.493Z"/></g></svg>