<svg xmlns="http://www.w3.org/2000/svg" width="29" height="29" viewBox="0 0 29 29"><defs><style>.a{fill:#0077b7;}</style></defs><path class="a" d="M89.377,14H65.623A2.623,2.623,0,0,0,63,16.623V40.377A2.623,2.623,0,0,0,65.623,43H89.377A2.623,2.623,0,0,0,92,40.377V16.623A2.623,2.623,0,0,0,89.377,14Zm-17.4,25.041a.763.763,0,0,1-.763.763h-3.25a.763.763,0,0,1-.763-.763V25.418a.763.763,0,0,1,.763-.763h3.25a.763.763,0,0,1,.763.763Zm-2.388-15.67a3.087,3.087,0,1,1,3.087-3.087A3.087,3.087,0,0,1,69.586,23.371ZM88.956,39.1a.7.7,0,0,1-.7.7H84.768a.7.7,0,0,1-.7-.7v-6.39c0-.953.28-4.177-2.491-4.177-2.149,0-2.585,2.207-2.673,3.2V39.1a.7.7,0,0,1-.7.7H74.827a.7.7,0,0,1-.7-.7V25.357a.7.7,0,0,1,.7-.7H78.2a.7.7,0,0,1,.7.7v1.188c.8-1.2,1.981-2.119,4.5-2.119,5.584,0,5.552,5.217,5.552,8.083Z" transform="translate(-63 -14)"/></svg>