<svg xmlns="http://www.w3.org/2000/svg" width="23.355" height="23.355" viewBox="0 0 23.355 23.355"><defs><style>.a{fill:#8395a7;stroke:#8395a7;stroke-miterlimit:10;stroke-width:0.5px;}</style></defs><g transform="translate(-0.75 0.75)"><g transform="translate(-290.494 -372.32)"><path class="a" d="M313.652,387.4a.7.7,0,0,0,.7-.7v-9.639a3.429,3.429,0,0,0-3.425-3.425h-1.395v-1.122a.7.7,0,1,0-1.393,0v1.122h-4.563v-1.122a.7.7,0,1,0-1.393,0v1.122h-4.518v-1.122a.7.7,0,1,0-1.393,0v1.122h-1.35a3.428,3.428,0,0,0-3.425,3.425v14.186a3.428,3.428,0,0,0,3.425,3.424h16.005a3.429,3.429,0,0,0,3.425-3.424.7.7,0,1,0-1.394,0,2.033,2.033,0,0,1-2.031,2.031H294.919a2.034,2.034,0,0,1-2.031-2.031V377.065a2.034,2.034,0,0,1,2.031-2.032h1.35v1.122a.7.7,0,1,0,1.393,0v-1.122h4.518v1.122a.7.7,0,1,0,1.393,0v-1.122h4.563v1.122a.7.7,0,1,0,1.393,0v-1.122h1.395a2.034,2.034,0,0,1,2.031,2.032V386.7A.7.7,0,0,0,313.652,387.4Z"/><path class="a" d="M297.922,382.1a.694.694,0,1,0,.694.694A.694.694,0,0,0,297.922,382.1Z" transform="translate(-0.901 -1.614)"/><path class="a" d="M307.219,382.1a.694.694,0,1,0,.694.694A.7.7,0,0,0,307.219,382.1Z" transform="translate(-2.361 -1.614)"/><path class="a" d="M311.867,382.1a.694.694,0,1,0,.694.694A.694.694,0,0,0,311.867,382.1Z" transform="translate(-3.092 -1.614)"/><path class="a" d="M297.922,386.745a.694.694,0,1,0,.694.7A.7.7,0,0,0,297.922,386.745Z" transform="translate(-0.901 -2.345)"/><path class="a" d="M297.922,391.394a.693.693,0,1,0,.694.693A.694.694,0,0,0,297.922,391.394Z" transform="translate(-0.901 -3.075)"/><path class="a" d="M302.571,382.1a.694.694,0,1,0,.694.694A.694.694,0,0,0,302.571,382.1Z" transform="translate(-1.631 -1.614)"/><path class="a" d="M301.667,382.988a.862.862,0,0,1-.04-.2h0A.862.862,0,0,0,301.667,382.988Z" transform="translate(-1.512 -1.647)"/><path class="a" d="M302.571,386.745a.694.694,0,1,0,.694.7A.7.7,0,0,0,302.571,386.745Z" transform="translate(-1.631 -2.345)"/><path class="a" d="M302.571,391.394a.693.693,0,1,0,.694.693A.694.694,0,0,0,302.571,391.394Z" transform="translate(-1.631 -3.075)"/><path class="a" d="M307.219,386.745a.694.694,0,1,0,.694.7A.7.7,0,0,0,307.219,386.745Z" transform="translate(-2.361 -2.345)"/><path class="a" d="M311.867,386.745a.694.694,0,1,0,.694.7A.7.7,0,0,0,311.867,386.745Z" transform="translate(-3.092 -2.345)"/><path class="a" d="M307.219,391.394a.693.693,0,1,0,.694.693A.695.695,0,0,0,307.219,391.394Z" transform="translate(-2.361 -3.075)"/></g></g></svg>